<?xml version="1.0" encoding="UTF-8"?>
<svg width="17px" height="17px" viewBox="0 0 17 17" version="1.1" xmlns="http://www.w3.org/2000/svg" xmlns:xlink="http://www.w3.org/1999/xlink">
    <title>弹窗icon</title>
    <g id="页面-1" stroke="none" stroke-width="1" fill="none" fill-rule="evenodd">
        <g id="弹窗视图、抽屉视图-ICON" transform="translate(-710.000000, -16.000000)">
            <g id="编组-6" transform="translate(0.009993, 0.820932)">
                <g id="编组-5" transform="translate(590.000000, 8.000000)">
                    <g id="弹窗icon" transform="translate(120.000000, 8.000000)">
                        <rect id="矩形备份-8" x="0" y="0" width="16" height="16"></rect>
                        <g id="编组-7" transform="translate(2.000000, 2.000000)" fill="currentColor" fill-rule="nonzero">
                            <g id="编组-2">
                                <path d="M2.70614352,2.76923077 L2.70614352,3.69230769 L0.90204784,3.69230769 L0.90204784,11.0769231 L8.85630569,11.0769231 L8.8564697,9.23076923 L9.75851754,9.23076923 L9.75851754,11.5384615 C9.75851754,11.7933622 9.55658725,12 9.30749362,12 L0.45102392,12 C0.201930287,12 0,11.7933622 0,11.5384615 L0,3.23076923 C0,2.97586858 0.201930287,2.76923077 0.45102392,2.76923077 L2.70614352,2.76923077 Z" id="路径"></path>
                                <path d="M13,9.69230769 C13,9.94720835 12.7980697,10.1538462 12.5489761,10.1538462 L2.2551196,10.1538462 C2.00602597,10.1538462 1.80409568,9.94720835 1.80409568,9.69230769 L1.80409568,0.461538462 C1.80409568,0.206637808 2.00602597,0 2.2551196,0 L12.5489761,0 C12.7980697,0 13,0.206637808 13,0.461538462 L13,9.69230769 Z M2.70614352,9.2306014 L12.0973636,9.2306014 L12.0973636,0.923076923 L2.70614352,0.923076923 L2.70614352,9.2306014 Z" id="形状结合"></path>
                            </g>
                        </g>
                    </g>
                </g>
            </g>
        </g>
    </g>
</svg>