<?xml version="1.0" encoding="UTF-8"?>
<svg width="17px" height="17px" viewBox="0 0 17 17" version="1.1" xmlns="http://www.w3.org/2000/svg" xmlns:xlink="http://www.w3.org/1999/xlink">
    <title>抽屉icon</title>
    <defs>
        <path d="M12.5357143,0 C12.7921322,0 13,0.206637808 13,0.461538462 L13,11.5384615 C13,11.7933622 12.7921322,12 12.5357143,12 L0.464285714,12 C0.207867795,12 0,11.7933622 0,11.5384615 L0,0.461538462 C0,0.206637808 0.207867795,0 0.464285714,0 L12.5357143,0 Z M7.032,0.923 L0.928571429,0.923076923 L0.928571429,11.0769231 L6.9642855,11.0769261 L7.032,0.923 Z M12.0714286,0.923076923 L7.962,0.923 L7.894,11.076 L12.0714286,11.0769231 L12.0714286,0.923076923 Z" id="path-1"></path>
    </defs>
    <g id="页面-1" stroke="none" stroke-width="1" fill="none" fill-rule="evenodd">
        <g id="抽屉/弹窗视图的背景" transform="translate(-710.000000, -16.000000)">
            <g id="编组-5备份-2" transform="translate(590.009993, 8.820932)">
                <g id="抽屉icon" transform="translate(120.000000, 8.000000)">
                    <rect id="矩形备份-8" x="0" y="0" width="16" height="16"></rect>
                    <g id="编组" transform="translate(1.586113, 2.089742)" fill-rule="nonzero">
                        <g id="形状结合">
                            <use fill="currentColor" xlink:href="#path-1"></use>
                            <use fill="currentColor" xlink:href="#path-1"></use>
                        </g>
                    </g>
                </g>
            </g>
        </g>
    </g>
</svg>